<svg xmlns="http://www.w3.org/2000/svg" viewBox="0 0 100 100" fill="none">
  <!-- Pizza Wave Official Logo Mark -->
  <rect x="2" y="2" width="96" height="96" rx="26" fill="#4D0711" stroke="#FDCC3B" stroke-width="3.5"/>
  <circle cx="32" cy="15" r="2.8" fill="#FEFEF6"/>
  <circle cx="50" cy="12" r="3.8" fill="#FDCC3B"/>
  <circle cx="68" cy="15" r="2.8" fill="#FEFEF6"/>
  <path d="M 16 26 C 33 16, 67 16, 84 26 C 86 27, 86 30, 84 31 C 74 36, 62 35, 50 33 C 38 31, 26 30, 16 31 C 14 30, 14 27, 16 26 Z" fill="#FDCC3B" stroke="#4D0711" stroke-width="2.5"/>
  <path d="M 18 31 L 82 31 L 52 86 C 50 89.5, 46 89.5, 44 86 L 18 31 Z" fill="#FEFEF6" stroke="#4D0711" stroke-width="3" stroke-linejoin="round"/>
  <path d="M 20 34 C 32 42, 42 34, 52 41 C 62 48, 72 39, 80 34 L 50 84 Z" fill="#FDCC3B"/>
  <path d="M 22 37 C 33 44, 41 40, 50 45 C 59 50, 68 43, 77 37 C 68 54, 58 68, 50 83 C 42 68, 31 54, 22 37 Z" fill="#FD7E3B"/>
  <circle cx="38" cy="48" r="6.2" fill="#BD1F17" stroke="#4D0711" stroke-width="1.8"/>
  <circle cx="58" cy="53" r="5.2" fill="#BD1F17" stroke="#4D0711" stroke-width="1.6"/>
  <circle cx="47" cy="67" r="4.2" fill="#BD1F17" stroke="#4D0711" stroke-width="1.4"/>
</svg>
